<svg width="20" height="13" viewBox="0 0 20 13" fill="none" xmlns="http://www.w3.org/2000/svg">
<path d="M6.1875 0.125C4.54647 0.125 2.97266 0.776895 1.81228 1.93728C0.651896 3.09766 0 4.67147 0 6.3125C0 7.95353 0.651896 9.52734 1.81228 10.6877C2.97266 11.8481 4.54647 12.5 6.1875 12.5H13.0735C14.7145 12.5 16.2883 11.8481 17.4487 10.6877C18.6091 9.52734 19.261 7.95353 19.261 6.3125C19.261 4.67147 18.6091 3.09766 17.4487 1.93728C16.2883 0.776895 14.7145 0.125 13.0735 0.125H6.1875ZM3.44025 6.3125C3.44025 6.13016 3.51268 5.9553 3.64161 5.82636C3.77055 5.69743 3.94541 5.625 4.12775 5.625H5.50275V4.25C5.50275 4.06766 5.57518 3.8928 5.70411 3.76386C5.83305 3.63493 6.00791 3.5625 6.19025 3.5625C6.37259 3.5625 6.54745 3.63493 6.67639 3.76386C6.80532 3.8928 6.87775 4.06766 6.87775 4.25V5.625H8.25275C8.43509 5.625 8.60995 5.69743 8.73889 5.82636C8.86782 5.9553 8.94025 6.13016 8.94025 6.3125C8.94025 6.49484 8.86782 6.6697 8.73889 6.79864C8.60995 6.92757 8.43509 7 8.25275 7H6.87775V8.375C6.87775 8.55734 6.80532 8.73221 6.67639 8.86114C6.54745 8.99007 6.37259 9.0625 6.19025 9.0625C6.00791 9.0625 5.83305 8.99007 5.70411 8.86114C5.57518 8.73221 5.50275 8.55734 5.50275 8.375V7H4.12775C3.94541 7 3.77055 6.92757 3.64161 6.79864C3.51268 6.6697 3.44025 6.49484 3.44025 6.3125ZM13.7473 8.375C13.7473 8.73967 13.6024 9.08941 13.3445 9.34727C13.0867 9.60513 12.7369 9.75 12.3723 9.75C12.0076 9.75 11.6578 9.60513 11.4 9.34727C11.1421 9.08941 10.9973 8.73967 10.9973 8.375C10.9973 8.01033 11.1421 7.66059 11.4 7.40273C11.6578 7.14487 12.0076 7 12.3723 7C12.7369 7 13.0867 7.14487 13.3445 7.40273C13.6024 7.66059 13.7473 8.01033 13.7473 8.375ZM13.7473 5.625C13.3826 5.625 13.0328 5.48013 12.775 5.22227C12.5171 4.96441 12.3723 4.61467 12.3723 4.25C12.3723 3.88533 12.5171 3.53559 12.775 3.27773C13.0328 3.01987 13.3826 2.875 13.7473 2.875C14.1119 2.875 14.4617 3.01987 14.7195 3.27773C14.9774 3.53559 15.1223 3.88533 15.1223 4.25C15.1223 4.61467 14.9774 4.96441 14.7195 5.22227C14.4617 5.48013 14.1119 5.625 13.7473 5.625Z" fill="white"/>
</svg>
