<svg width="20" height="20" viewBox="0 0 20 20" fill="none" xmlns="http://www.w3.org/2000/svg">
<path d="M8.58079 3.99997H11.5808L14.8708 0.699973C14.9638 0.606245 15.0744 0.53185 15.1962 0.481082C15.3181 0.430313 15.4488 0.404175 15.5808 0.404175C15.7128 0.404175 15.8435 0.430313 15.9654 0.481082C16.0872 0.53185 16.1978 0.606245 16.2908 0.699973L18.8708 3.28997C19.057 3.47734 19.1616 3.73079 19.1616 3.99497C19.1616 4.25916 19.057 4.51261 18.8708 4.69997L16.5808 6.99997H8.58079V8.99997C8.58079 9.26519 8.47544 9.51954 8.2879 9.70708C8.10036 9.89462 7.84601 9.99997 7.58079 9.99997C7.31558 9.99997 7.06122 9.89462 6.87369 9.70708C6.68615 9.51954 6.58079 9.26519 6.58079 8.99997V5.99997C6.58079 5.46954 6.79151 4.96083 7.16658 4.58576C7.54165 4.21069 8.05036 3.99997 8.58079 3.99997ZM2.58079 8.99997V13L0.290793 15.29C0.104542 15.4773 0 15.7308 0 15.995C0 16.2592 0.104542 16.5126 0.290793 16.7L2.87079 19.29C2.96376 19.3837 3.07436 19.4581 3.19622 19.5089C3.31808 19.5596 3.44878 19.5858 3.58079 19.5858C3.7128 19.5858 3.84351 19.5596 3.96537 19.5089C4.08723 19.4581 4.19783 19.3837 4.29079 19.29L8.58079 15H12.5808C12.846 15 13.1004 14.8946 13.2879 14.7071C13.4754 14.5195 13.5808 14.2652 13.5808 14V13H14.5808C14.846 13 15.1004 12.8946 15.2879 12.7071C15.4754 12.5195 15.5808 12.2652 15.5808 12V11H16.5808C16.846 11 17.1004 10.8946 17.2879 10.7071C17.4754 10.5195 17.5808 10.2652 17.5808 9.99997V8.99997H10.5808V9.99997C10.5808 10.5304 10.3701 11.0391 9.99501 11.4142C9.61993 11.7893 9.11123 12 8.58079 12H6.58079C6.05036 12 5.54165 11.7893 5.16658 11.4142C4.79151 11.0391 4.58079 10.5304 4.58079 9.99997V6.99997L2.58079 8.99997Z" fill="white"/>
</svg>
