<svg width="15" height="14" viewBox="0 0 15 14" fill="none" xmlns="http://www.w3.org/2000/svg">
<path d="M13.7848 4.66663H11.7108L11.2688 2.02597C11.1797 1.62643 10.9841 1.25847 10.7028 0.96115C10.4214 0.66383 10.0648 0.448251 9.67077 0.337301C9.27491 0.209943 8.86254 0.141214 8.44677 0.133301H5.9081C5.49234 0.141214 5.07997 0.209943 4.6841 0.337301C4.29009 0.448251 3.93347 0.66383 3.65211 0.96115C3.37075 1.25847 3.17516 1.62643 3.0861 2.02597L2.6441 4.66663H0.570104C0.480842 4.66609 0.392714 4.68665 0.312901 4.72662C0.233088 4.76659 0.163848 4.82486 0.110821 4.89667C0.0577946 4.96847 0.0224817 5.05179 0.00775987 5.13983C-0.00696198 5.22787 -0.000676302 5.31815 0.0261045 5.4033L2.15677 12.5433C2.26524 12.8882 2.48087 13.1896 2.77232 13.4036C3.06377 13.6176 3.41586 13.7331 3.77744 13.7333H10.5774C10.9371 13.7307 11.2866 13.6141 11.5758 13.4002C11.865 13.1864 12.0789 12.8864 12.1868 12.5433L14.3174 5.4033C14.3439 5.31906 14.3504 5.22979 14.3363 5.14262C14.3221 5.05544 14.2878 4.97277 14.2361 4.90121C14.1843 4.82965 14.1166 4.77117 14.0382 4.73044C13.9599 4.68971 13.8731 4.66786 13.7848 4.66663ZM3.8001 4.66663L4.2081 2.2073C4.25283 2.0065 4.35659 1.82367 4.50604 1.68229C4.65548 1.54092 4.8438 1.44748 5.04677 1.41397C5.32557 1.32557 5.61571 1.27683 5.9081 1.26663H8.44677C8.74257 1.2757 9.03611 1.32557 9.31944 1.41397C9.52241 1.44748 9.71072 1.54092 9.86017 1.68229C10.0096 1.82367 10.1134 2.0065 10.1581 2.2073L10.5548 4.66663H3.75477H3.8001Z" fill="white"/>
</svg>
