<svg width="24" height="24" viewBox="0 0 24 24" fill="none" xmlns="http://www.w3.org/2000/svg">
<path fill-rule="evenodd" clip-rule="evenodd" d="M5.46701 4.39196C5.60733 4.53272 5.68603 4.72342 5.68585 4.92217C5.68566 5.12092 5.60659 5.31147 5.46601 5.45196C4.60361 6.31019 3.91961 7.33064 3.45347 8.45447C2.98732 9.5783 2.74824 10.7833 2.75001 12C2.7483 13.2305 2.99295 14.449 3.46954 15.5836C3.94613 16.7181 4.64502 17.7458 5.52501 18.606C5.59697 18.6745 5.65458 18.7567 5.6945 18.8477C5.73442 18.9387 5.75585 19.0368 5.75755 19.1362C5.75924 19.2356 5.74117 19.3343 5.70437 19.4266C5.66757 19.5189 5.61279 19.603 5.54321 19.674C5.47363 19.745 5.39063 19.8014 5.29905 19.84C5.20746 19.8787 5.10912 19.8987 5.00973 19.899C4.91033 19.8992 4.81188 19.8797 4.72008 19.8416C4.62829 19.8035 4.54498 19.7475 4.47501 19.677C3.45257 18.6771 2.64051 17.4828 2.08666 16.1644C1.5328 14.8459 1.24833 13.43 1.25001 12C1.25001 9.02796 2.45701 6.33596 4.40601 4.39096C4.54677 4.25064 4.73746 4.17193 4.93621 4.17212C5.13496 4.17231 5.32651 4.25138 5.46701 4.39196ZM18.616 4.46396C18.7581 4.32496 18.9495 4.24804 19.1483 4.2501C19.347 4.25217 19.5368 4.33304 19.676 4.47496C21.649 6.48236 22.7532 9.1853 22.75 12C22.75 14.964 21.55 17.65 19.609 19.594C19.4684 19.7348 19.2777 19.814 19.0787 19.8142C18.8797 19.8144 18.6888 19.7355 18.548 19.595C18.4072 19.4544 18.328 19.2636 18.3278 19.0647C18.3276 18.8657 18.4064 18.6748 18.547 18.534C19.4054 17.6763 20.086 16.6577 20.5499 15.5364C21.0137 14.4152 21.2516 13.2134 21.25 12C21.2535 9.5781 20.3037 7.25216 18.606 5.52496C18.4669 5.38301 18.3898 5.19164 18.3917 4.99289C18.3935 4.79414 18.4742 4.60326 18.616 4.46396ZM8.30801 7.48796C8.44392 7.63317 8.51658 7.82642 8.51002 8.02521C8.50345 8.22399 8.4182 8.41203 8.27301 8.54796C7.32401 9.43596 6.74901 10.65 6.74901 11.982C6.74901 13.33 7.33801 14.557 8.30701 15.448C8.45341 15.5827 8.54029 15.7701 8.54854 15.9688C8.55679 16.1676 8.48574 16.3616 8.35101 16.508C8.21628 16.6544 8.02891 16.7412 7.83012 16.7495C7.63133 16.7577 7.43741 16.6867 7.29101 16.552C6.03901 15.401 5.24901 13.782 5.24901 11.982C5.24901 10.203 6.02001 8.60196 7.24901 7.45196C7.39435 7.31618 7.58768 7.24369 7.78646 7.25044C7.98525 7.25719 8.17321 7.34263 8.30901 7.48796M15.743 7.52596C15.8804 7.38228 16.0693 7.29904 16.268 7.29454C16.4668 7.29004 16.6592 7.36465 16.803 7.50196C18 8.64696 18.75 10.229 18.75 11.982C18.75 13.757 17.983 15.355 16.76 16.503C16.6886 16.5723 16.6041 16.6268 16.5115 16.6631C16.4188 16.6995 16.3198 16.7171 16.2203 16.7148C16.1208 16.7125 16.0227 16.6905 15.9318 16.6499C15.8409 16.6094 15.759 16.5511 15.6908 16.4786C15.6227 16.406 15.5696 16.3206 15.5348 16.2274C15.5 16.1341 15.4841 16.0349 15.488 15.9354C15.4919 15.836 15.5156 15.7383 15.5577 15.6481C15.5997 15.5578 15.6593 15.4769 15.733 15.41C16.678 14.523 17.25 13.31 17.25 11.982C17.25 10.669 16.691 9.46996 15.766 8.58596C15.6225 8.44841 15.5394 8.25949 15.5351 8.06072C15.5308 7.86196 15.6056 7.66961 15.743 7.52596Z" fill="white"/>
<path d="M13.656 10.451C14.552 11.109 15 11.438 15 12.001C15 12.563 14.552 12.891 13.656 13.549C13.4223 13.722 13.1829 13.8871 12.938 14.044C12.741 14.169 12.517 14.298 12.285 14.425C11.391 14.915 10.945 15.159 10.544 14.888C10.143 14.618 10.107 14.05 10.034 12.917C10.014 12.597 10 12.282 10 12C10 11.718 10.013 11.404 10.034 11.083C10.106 9.94995 10.143 9.38295 10.544 9.11295C10.944 8.84195 11.391 9.08595 12.284 9.57495C12.517 9.70195 12.741 9.83095 12.938 9.95595C13.164 10.099 13.409 10.27 13.656 10.451Z" fill="white"/>
</svg>
