<svg width="16" height="14" viewBox="0 0 16 14" fill="none" xmlns="http://www.w3.org/2000/svg">
<path d="M13.625 12.375V1.125C13.625 0.4922 14.1523 0 14.75 0C15.3828 0 15.875 0.4922 15.875 1.125V12.375C15.875 12.9727 15.3828 13.5 14.75 13.5C14.1523 13.5 13.625 12.9727 13.625 12.375ZM0.476601 5.9414L4.9766 1.4414C5.3984 0.984401 6.1367 0.984401 6.5586 1.4414C7.0156 1.8633 7.0156 2.6016 6.5586 3.0234L3.9922 5.625H10.25C10.8828 5.625 11.375 6.1172 11.375 6.75C11.375 7.3477 10.8828 7.875 10.25 7.875H3.9922L6.5586 10.4414C7.0156 10.8633 7.0156 11.6016 6.5586 12.0234C6.1367 12.4805 5.3984 12.4805 4.9766 12.0234L0.476601 7.5234C0.0195007 7.1016 0.0195007 6.3633 0.476601 5.9414Z" fill="white"/>
</svg>
