<svg width="20" height="20" viewBox="0 0 20 20" fill="none" xmlns="http://www.w3.org/2000/svg">
<path d="M7.06846 2.56696C6.80804 2.08333 6.2872 1.78571 5.72916 1.78571H5.65476C4.7991 1.78571 4.16667 2.45536 4.16667 3.27381C4.16667 4.12947 4.7991 4.7619 5.65476 4.7619H8.33333H8.37053L7.06846 2.56696ZM2.38095 3.27381C2.38095 1.48809 3.83185 0 5.65476 0H5.72916C6.91964 0 7.99851 0.632441 8.59375 1.6741L9.52381 3.19941L10.4167 1.6741C11.0119 0.632441 12.0908 0 13.2812 0H13.3929C15.1786 0 16.6667 1.48809 16.6667 3.27381C16.6667 3.83185 16.5179 4.31547 16.2947 4.7619H17.8571C18.4896 4.7619 19.0476 5.31994 19.0476 5.95238V8.33333C19.0476 9.00298 18.4896 9.5238 17.8571 9.5238H1.19048C0.520833 9.5238 0 9.00298 0 8.33333V5.95238C0 5.31994 0.520833 4.7619 1.19048 4.7619H2.71577C2.49256 4.31547 2.38095 3.83185 2.38095 3.27381ZM14.881 3.27381C14.881 2.45536 14.2113 1.78571 13.3929 1.78571H13.2812C12.7232 1.78571 12.2396 2.08333 11.942 2.56696L10.6399 4.7619H10.7143H13.3929C14.2113 4.7619 14.881 4.12947 14.881 3.27381ZM1.19048 10.7143H8.33333V19.0476H2.97619C1.97172 19.0476 1.19048 18.2664 1.19048 17.2619V10.7143ZM10.7143 19.0476V10.7143H17.8571V17.2619C17.8571 18.2664 17.0387 19.0476 16.0714 19.0476H10.7143Z" fill="#846BFF"/>
</svg>
