<svg width="14" height="12" viewBox="0 0 14 12" fill="none" xmlns="http://www.w3.org/2000/svg">
<path d="M0.509491 5.30567C0.328359 5.50693 0.237793 5.73837 0.237793 6.00001C0.237793 6.26164 0.328359 6.49309 0.509491 6.69435L5.33968 11.5245C5.54094 11.7057 5.77238 11.7962 6.03402 11.7962C6.29565 11.7962 6.5271 11.7057 6.72836 11.5245C6.90949 11.3233 7.00006 11.0918 7.00006 10.8302C7.00006 10.5686 6.90949 10.3371 6.72836 10.1359L3.52836 6.96605H12.7963C13.078 6.96605 13.3095 6.87548 13.4906 6.69435C13.6718 6.51322 13.7623 6.28177 13.7623 6.00001C13.7623 5.71825 13.6718 5.4868 13.4906 5.30567C13.3095 5.12454 13.078 5.03397 12.7963 5.03397H3.52836L6.72836 1.86416C6.90949 1.6629 7.00006 1.43145 7.00006 1.16982C7.00006 0.908184 6.90949 0.676737 6.72836 0.475479C6.5271 0.294347 6.29565 0.203781 6.03402 0.203781C5.77238 0.203781 5.54094 0.294347 5.33968 0.475479L0.509491 5.30567Z" fill="white"/>
</svg>
