<svg width="32" height="32" viewBox="0 0 32 32" fill="none" xmlns="http://www.w3.org/2000/svg">
<g filter="url(#filter0_ddiiii_3_250)">
<circle cx="16.0694" cy="16.0692" r="15.0694" fill="white"/>
<circle cx="16.0694" cy="16.0692" r="14.1801" stroke="url(#paint0_linear_3_250)" stroke-width="1.77868"/>
</g>
<path d="M8.29262 19.1304C8.25046 19.1304 8.21093 19.1146 8.17404 19.0829C8.14242 19.0513 8.12661 19.0118 8.12661 18.9644C8.12661 18.9433 8.13188 18.9196 8.14242 18.8932L10.0476 13.7943C10.0634 13.7416 10.0924 13.6968 10.1345 13.6599C10.182 13.6178 10.2452 13.5967 10.3243 13.5967H11.1859C11.265 13.5967 11.3256 13.6178 11.3678 13.6599C11.4099 13.6968 11.4415 13.7416 11.4626 13.7943L13.3678 18.8932C13.3731 18.9196 13.3757 18.9433 13.3757 18.9644C13.3757 19.0118 13.3599 19.0513 13.3283 19.0829C13.2967 19.1146 13.2598 19.1304 13.2176 19.1304H12.5298C12.4561 19.1304 12.4007 19.1146 12.3638 19.0829C12.3322 19.046 12.3111 19.0118 12.3006 18.9802L11.929 18.0157H9.58118L9.20963 18.9802C9.19909 19.0118 9.17538 19.046 9.13848 19.0829C9.10686 19.1146 9.05416 19.1304 8.98038 19.1304H8.29262ZM9.85786 17.1066H11.6524L10.7512 14.6639L9.85786 17.1066ZM14.3035 19.1304C14.2508 19.1304 14.206 19.1146 14.1691 19.0829C14.1322 19.046 14.1137 18.9986 14.1137 18.9406V13.7943C14.1137 13.7363 14.1322 13.6889 14.1691 13.652C14.206 13.6151 14.2508 13.5967 14.3035 13.5967H15.0228C15.0808 13.5967 15.1256 13.6151 15.1572 13.652C15.1941 13.6889 15.2126 13.7363 15.2126 13.7943V15.8339H15.9003L17.1889 13.739C17.2152 13.6968 17.2495 13.6626 17.2916 13.6362C17.3391 13.6099 17.3997 13.5967 17.4735 13.5967H18.2561C18.3088 13.5967 18.3483 13.6125 18.3747 13.6441C18.4063 13.6757 18.4221 13.7153 18.4221 13.7627C18.4221 13.7891 18.4116 13.8207 18.3905 13.8576L16.8964 16.2687L18.5328 18.8616C18.5486 18.8774 18.5565 18.9064 18.5565 18.9486C18.5565 18.996 18.538 19.0381 18.5012 19.075C18.4695 19.1119 18.4274 19.1304 18.3747 19.1304H17.5604C17.4919 19.1304 17.4392 19.1146 17.4023 19.0829C17.3707 19.0513 17.3443 19.0223 17.3233 18.996L15.9398 16.822H15.2126V18.9406C15.2126 18.9933 15.1941 19.0381 15.1572 19.075C15.1256 19.1119 15.0808 19.1304 15.0228 19.1304H14.3035ZM21.5441 19.2094C21.0539 19.2094 20.6376 19.1251 20.295 18.9565C19.9577 18.7825 19.6995 18.5375 19.5203 18.2213C19.3411 17.8998 19.241 17.5151 19.2199 17.0671C19.2146 16.851 19.212 16.6191 19.212 16.3714C19.212 16.1237 19.2146 15.8866 19.2199 15.66C19.241 15.2173 19.3411 14.8352 19.5203 14.5137C19.7048 14.1922 19.9656 13.9472 20.3029 13.7785C20.6455 13.6046 21.0592 13.5176 21.5441 13.5176C21.9024 13.5176 22.2239 13.5651 22.5085 13.6599C22.7931 13.7548 23.0355 13.8865 23.2358 14.0552C23.4361 14.2186 23.5915 14.4109 23.7022 14.6323C23.8129 14.8536 23.8708 15.0934 23.8761 15.3517C23.8814 15.3991 23.8656 15.4386 23.8287 15.4702C23.7971 15.5019 23.7575 15.5177 23.7101 15.5177H22.9591C22.9011 15.5177 22.8537 15.5045 22.8168 15.4781C22.7799 15.4465 22.7536 15.3965 22.7378 15.3279C22.6534 14.9801 22.5085 14.743 22.303 14.6165C22.0974 14.49 21.8418 14.4267 21.5362 14.4267C21.1831 14.4267 20.9011 14.5269 20.6903 14.7271C20.4795 14.9221 20.3662 15.2463 20.3504 15.6995C20.3346 16.1316 20.3346 16.5743 20.3504 17.0276C20.3662 17.4808 20.4795 17.8076 20.6903 18.0078C20.9011 18.2028 21.1831 18.3003 21.5362 18.3003C21.8418 18.3003 22.0974 18.2371 22.303 18.1106C22.5085 17.9788 22.6534 17.7417 22.7378 17.3991C22.7536 17.3253 22.7799 17.2753 22.8168 17.2489C22.8537 17.2226 22.9011 17.2094 22.9591 17.2094H23.7101C23.7575 17.2094 23.7971 17.2252 23.8287 17.2568C23.8656 17.2884 23.8814 17.328 23.8761 17.3754C23.8708 17.6336 23.8129 17.8734 23.7022 18.0948C23.5915 18.3161 23.4361 18.5111 23.2358 18.6798C23.0355 18.8431 22.7931 18.9723 22.5085 19.0671C22.2239 19.162 21.9024 19.2094 21.5441 19.2094Z" fill="url(#paint1_linear_3_250)"/>
<defs>
<filter id="filter0_ddiiii_3_250" x="-0.482236" y="-0.48248" width="33.1033" height="33.1033" filterUnits="userSpaceOnUse" color-interpolation-filters="sRGB">
<feFlood flood-opacity="0" result="BackgroundImageFix"/>
<feColorMatrix in="SourceAlpha" type="matrix" values="0 0 0 0 0 0 0 0 0 0 0 0 0 0 0 0 0 0 127 0" result="hardAlpha"/>
<feOffset dx="-0.0988157" dy="-0.0988157"/>
<feGaussianBlur stdDeviation="0.0988157"/>
<feColorMatrix type="matrix" values="0 0 0 0 0.580392 0 0 0 0 0.580392 0 0 0 0 0.580392 0 0 0 0.5 0"/>
<feBlend mode="normal" in2="BackgroundImageFix" result="effect1_dropShadow_3_250"/>
<feColorMatrix in="SourceAlpha" type="matrix" values="0 0 0 0 0 0 0 0 0 0 0 0 0 0 0 0 0 0 127 0" result="hardAlpha"/>
<feOffset dx="0.0988157" dy="0.0988157"/>
<feGaussianBlur stdDeviation="0.0988157"/>
<feColorMatrix type="matrix" values="0 0 0 0 1 0 0 0 0 1 0 0 0 0 1 0 0 0 0.3 0"/>
<feBlend mode="normal" in2="effect1_dropShadow_3_250" result="effect2_dropShadow_3_250"/>
<feBlend mode="normal" in="SourceGraphic" in2="effect2_dropShadow_3_250" result="shape"/>
<feColorMatrix in="SourceAlpha" type="matrix" values="0 0 0 0 0 0 0 0 0 0 0 0 0 0 0 0 0 0 127 0" result="hardAlpha"/>
<feOffset dx="1.48224" dy="1.48224"/>
<feGaussianBlur stdDeviation="1.8775"/>
<feComposite in2="hardAlpha" operator="arithmetic" k2="-1" k3="1"/>
<feColorMatrix type="matrix" values="0 0 0 0 0.580392 0 0 0 0 0.580392 0 0 0 0 0.580392 0 0 0 0.9 0"/>
<feBlend mode="normal" in2="shape" result="effect3_innerShadow_3_250"/>
<feColorMatrix in="SourceAlpha" type="matrix" values="0 0 0 0 0 0 0 0 0 0 0 0 0 0 0 0 0 0 127 0" result="hardAlpha"/>
<feOffset dx="-1.48224" dy="-1.48224"/>
<feGaussianBlur stdDeviation="1.48224"/>
<feComposite in2="hardAlpha" operator="arithmetic" k2="-1" k3="1"/>
<feColorMatrix type="matrix" values="0 0 0 0 1 0 0 0 0 1 0 0 0 0 1 0 0 0 0.9 0"/>
<feBlend mode="normal" in2="effect3_innerShadow_3_250" result="effect4_innerShadow_3_250"/>
<feColorMatrix in="SourceAlpha" type="matrix" values="0 0 0 0 0 0 0 0 0 0 0 0 0 0 0 0 0 0 127 0" result="hardAlpha"/>
<feOffset dx="1.48224" dy="-1.48224"/>
<feGaussianBlur stdDeviation="1.48224"/>
<feComposite in2="hardAlpha" operator="arithmetic" k2="-1" k3="1"/>
<feColorMatrix type="matrix" values="0 0 0 0 0.580392 0 0 0 0 0.580392 0 0 0 0 0.580392 0 0 0 0.2 0"/>
<feBlend mode="normal" in2="effect4_innerShadow_3_250" result="effect5_innerShadow_3_250"/>
<feColorMatrix in="SourceAlpha" type="matrix" values="0 0 0 0 0 0 0 0 0 0 0 0 0 0 0 0 0 0 127 0" result="hardAlpha"/>
<feOffset dx="-1.48224" dy="1.48224"/>
<feGaussianBlur stdDeviation="1.48224"/>
<feComposite in2="hardAlpha" operator="arithmetic" k2="-1" k3="1"/>
<feColorMatrix type="matrix" values="0 0 0 0 0.580392 0 0 0 0 0.580392 0 0 0 0 0.580392 0 0 0 0.2 0"/>
<feBlend mode="normal" in2="effect5_innerShadow_3_250" result="effect6_innerShadow_3_250"/>
</filter>
<linearGradient id="paint0_linear_3_250" x1="30.9982" y1="22.6112" x2="0.745337" y2="9.13182" gradientUnits="userSpaceOnUse">
<stop stop-color="#DD2A7B"/>
<stop offset="0.515" stop-color="#667AFF"/>
<stop offset="1" stop-color="#19FF9B"/>
</linearGradient>
<linearGradient id="paint1_linear_3_250" x1="10.8675" y1="15.1304" x2="22.2034" y2="16.8771" gradientUnits="userSpaceOnUse">
<stop stop-color="#FDC601"/>
<stop offset="1" stop-color="#FF5000"/>
</linearGradient>
</defs>
</svg>
