<svg width="14" height="12" viewBox="0 0 14 12" fill="none" xmlns="http://www.w3.org/2000/svg">
<path d="M13.4906 6.69435C13.6718 6.49309 13.7623 6.26164 13.7623 6.00001C13.7623 5.73837 13.6718 5.50693 13.4906 5.30567L8.66043 0.475479C8.45918 0.294347 8.22773 0.203781 7.96609 0.203781C7.70446 0.203781 7.47301 0.294347 7.27176 0.475479C7.09062 0.676737 7.00006 0.908184 7.00006 1.16982C7.00006 1.43145 7.09062 1.6629 7.27176 1.86416L10.4718 5.03397H1.20383C0.92207 5.03397 0.690623 5.12454 0.509491 5.30567C0.328359 5.4868 0.237793 5.71825 0.237793 6.00001C0.237793 6.28177 0.328359 6.51322 0.509491 6.69435C0.690623 6.87548 0.92207 6.96605 1.20383 6.96605H10.4718L7.27176 10.1359C7.09062 10.3371 7.00006 10.5686 7.00006 10.8302C7.00006 11.0918 7.09062 11.3233 7.27176 11.5245C7.47301 11.7057 7.70446 11.7962 7.96609 11.7962C8.22773 11.7962 8.45918 11.7057 8.66043 11.5245L13.4906 6.69435Z" fill="white"/>
</svg>
