<svg width="30" height="29" viewBox="0 0 30 29" fill="none" xmlns="http://www.w3.org/2000/svg">
<path d="M14.9998 0.124981C22.8488 0.124981 29.2082 6.48436 29.2082 14.3333C29.2082 22.1823 22.8488 28.5416 14.9998 28.5416C7.15088 28.5416 0.791504 22.1823 0.791504 14.3333C0.791504 6.48436 7.15088 0.124981 14.9998 0.124981ZM21.9321 9.86456C22.1613 8.9479 21.5884 8.54686 20.9582 8.77602L7.26546 14.0469C6.3488 14.3906 6.3488 14.9635 7.09359 15.1927L10.5884 16.2812L18.7238 11.125C19.1248 10.8958 19.4686 11.0677 19.1821 11.2969L12.5936 17.2552L12.3644 20.8646C12.7082 20.8646 12.88 20.6927 13.0519 20.5208L14.7707 18.8594L18.3228 21.4948C19.0103 21.8385 19.4686 21.6666 19.6405 20.8646L21.9321 9.86456Z" fill="#0088CC"/>
</svg>
