<svg width="30" height="22" viewBox="0 0 30 22" fill="none" xmlns="http://www.w3.org/2000/svg">
<path fill-rule="evenodd" clip-rule="evenodd" d="M25.3988 20.9729C26.9228 20.7552 28.1565 19.5941 28.4467 18.0701C28.737 16.401 29.0273 13.9337 29.0999 10.8857C29.0999 7.83783 28.737 5.37046 28.4467 3.70137C28.1565 2.17741 26.9228 1.0163 25.3988 0.798589C22.9315 0.435742 19.0127 0.000325203 14.5134 0.000325203C10.0141 0.000325203 6.02278 0.435742 3.62798 0.798589C2.10403 1.0163 0.870345 2.17741 0.580067 3.70137C0.28979 5.37046 -0.000488281 7.83783 -0.000488281 10.8857C-0.000488281 13.9337 0.28979 16.401 0.580067 18.0701C0.870345 19.5941 2.10403 20.7552 3.62798 20.9729C6.09535 21.3357 10.0867 21.7712 14.5134 21.7712C19.0127 21.7712 23.004 21.3357 25.3988 20.9729ZM11.6082 5.80648V15.9662L20.3166 10.8863L11.6082 5.80648Z" fill="#FF0000"/>
</svg>
